<svg class="MuiSvgIcon-root MuiSvgIcon-fontSizeSmall" focusable="false" viewBox="0 0 20 20" aria-hidden="true"><path d="M10 0C11.3132 0 12.6136 0.258658 13.8268 0.761205C15.0401 1.26375 16.1425 2.00035 17.0711 2.92893C17.9997 3.85752 18.7362 4.95991 19.2388 6.17317C19.7413 7.38642 20 8.68678 20 10C20 10.5304 19.7893 11.0391 19.4142 11.4142C19.0391 11.7893 18.5304 12 18 12H2C1.46957 12 0.960859 11.7893 0.585786 11.4142C0.210714 11.0391 0 10.5304 0 10C0 7.34784 1.05357 4.8043 2.92893 2.92893C4.8043 1.05357 7.34784 0 10 0V0ZM10 6C10.5304 6 11.0391 5.78929 11.4142 5.41421C11.7893 5.03914 12 4.53043 12 4C12 3.46957 11.7893 2.96086 11.4142 2.58579C11.0391 2.21071 10.5304 2 10 2C9.46957 2 8.96086 2.21071 8.58579 2.58579C8.21071 2.96086 8 3.46957 8 4C8 4.53043 8.21071 5.03914 8.58579 5.41421C8.96086 5.78929 9.46957 6 10 6ZM15 10C15.5304 10 16.0391 9.78929 16.4142 9.41421C16.7893 9.03914 17 8.53043 17 8C17 7.46957 16.7893 6.96086 16.4142 6.58579C16.0391 6.21071 15.5304 6 15 6C14.4696 6 13.9609 6.21071 13.5858 6.58579C13.2107 6.96086 13 7.46957 13 8C13 8.53043 13.2107 9.03914 13.5858 9.41421C13.9609 9.78929 14.4696 10 15 10ZM5 10C5.53043 10 6.03914 9.78929 6.41421 9.41421C6.78929 9.03914 7 8.53043 7 8C7 7.46957 6.78929 6.96086 6.41421 6.58579C6.03914 6.21071 5.53043 6 5 6C4.46957 6 3.96086 6.21071 3.58579 6.58579C3.21071 6.96086 3 7.46957 3 8C3 8.53043 3.21071 9.03914 3.58579 9.41421C3.96086 9.78929 4.46957 10 5 10ZM13 13L14.27 17.45L14.35 18C14.35 19.1 13.45 20 12.35 20H7.65C7.11957 20 6.61086 19.7893 6.23579 19.4142C5.86071 19.0391 5.65 18.5304 5.65 18L5.73 17.45L7 13H13Z"></path></svg>